<svg width="48" height="47" viewBox="0 0 48 47" fill="none" xmlns="http://www.w3.org/2000/svg">
<g clip-path="url(#clip0_2013_104086)">
<path d="M10.9062 15.5312V46.5H0.59375V15.5312H10.9062ZM11.5625 5.96875C11.5833 7.48958 11.0573 8.76042 9.98438 9.78125C8.91146 10.8021 7.5 11.3125 5.75 11.3125H5.6875C3.97917 11.3125 2.60417 10.8021 1.5625 9.78125C0.520833 8.76042 0 7.48958 0 5.96875C0 4.42708 0.536458 3.15104 1.60938 2.14062C2.68229 1.13021 4.08333 0.625 5.8125 0.625C7.54167 0.625 8.92708 1.13021 9.96875 2.14062C11.0104 3.15104 11.5417 4.42708 11.5625 5.96875ZM48 28.75V46.5H37.7188V29.9375C37.7188 27.75 37.2969 26.0365 36.4531 24.7969C35.6094 23.5573 34.2917 22.9375 32.5 22.9375C31.1875 22.9375 30.0885 23.2969 29.2031 24.0156C28.3177 24.7344 27.6562 25.625 27.2188 26.6875C26.9896 27.3125 26.875 28.1562 26.875 29.2188V46.5H16.5938C16.6354 38.1875 16.6562 31.4479 16.6562 26.2812C16.6562 21.1146 16.6458 18.0312 16.625 17.0312L16.5938 15.5312H26.875V20.0312H26.8125C27.2292 19.3646 27.6562 18.7812 28.0938 18.2812C28.5312 17.7812 29.1198 17.2396 29.8594 16.6562C30.599 16.0729 31.5052 15.6198 32.5781 15.2969C33.651 14.974 34.8438 14.8125 36.1562 14.8125C39.7188 14.8125 42.5833 15.9948 44.75 18.3594C46.9167 20.724 48 24.1875 48 28.75Z" fill="#484849"/>
</g>
<defs>
<clipPath id="clip0_2013_104086">
<rect width="48" height="47" fill="white"/>
</clipPath>
</defs>
</svg>
