<svg width="28" height="20" viewBox="0 0 28 20" fill="none" xmlns="http://www.w3.org/2000/svg">
<g clip-path="url(#clip0_2013_104088)">
<path d="M11.1094 13.625L18.6719 9.71875L11.1094 5.76562V13.625ZM14 0.15625C15.75 0.15625 17.4402 0.179688 19.0704 0.226562C20.7006 0.273438 21.8959 0.322917 22.6563 0.375L23.7969 0.4375C23.8073 0.4375 23.8959 0.445312 24.0625 0.460938C24.2292 0.476562 24.349 0.492188 24.4219 0.507812C24.4948 0.523438 24.6172 0.546875 24.7891 0.578125C24.961 0.609375 25.1094 0.651042 25.2344 0.703125C25.3594 0.755208 25.5053 0.822917 25.6719 0.90625C25.8386 0.989583 26 1.09115 26.1563 1.21094C26.3125 1.33073 26.4636 1.46875 26.6094 1.625C26.6719 1.6875 26.7527 1.78385 26.8516 1.91406C26.9506 2.04427 27.1016 2.34896 27.3047 2.82812C27.5079 3.30729 27.6459 3.83333 27.7188 4.40625C27.8021 5.07292 27.8672 5.78385 27.9141 6.53906C27.961 7.29427 27.9896 7.88542 28 8.3125V11.0625C28.0105 12.5729 27.9167 14.0833 27.7188 15.5938C27.6459 16.1667 27.5157 16.6849 27.3282 17.1484C27.1407 17.612 26.974 17.9323 26.8282 18.1094L26.6094 18.375C26.4636 18.5312 26.3125 18.6693 26.1563 18.7891C26 18.9089 25.8386 19.0078 25.6719 19.0859C25.5053 19.1641 25.3594 19.2292 25.2344 19.2812C25.1094 19.3333 24.961 19.375 24.7891 19.4062C24.6172 19.4375 24.4922 19.4609 24.4141 19.4766C24.336 19.4922 24.2162 19.5078 24.0547 19.5234C23.8933 19.5391 23.8073 19.5469 23.7969 19.5469C21.1823 19.7448 17.9167 19.8438 14 19.8438C11.8438 19.8229 9.9714 19.7891 8.38286 19.7422C6.79432 19.6953 5.75005 19.6562 5.25005 19.625L4.48442 19.5625L3.92192 19.5C3.54692 19.4479 3.26307 19.3958 3.07036 19.3438C2.87765 19.2917 2.61203 19.1823 2.27349 19.0156C1.93494 18.849 1.64067 18.6354 1.39067 18.375C1.32817 18.3125 1.24744 18.2161 1.14849 18.0859C1.04953 17.9557 0.898486 17.651 0.695361 17.1719C0.492236 16.6927 0.354215 16.1667 0.281299 15.5938C0.197965 14.9271 0.132861 14.2161 0.0859863 13.4609C0.0391113 12.7057 0.0104655 12.1146 4.88282e-05 11.6875V8.9375C-0.0103678 7.42708 0.0833821 5.91667 0.281299 4.40625C0.354215 3.83333 0.484424 3.3151 0.671924 2.85156C0.859424 2.38802 1.02609 2.06771 1.17192 1.89062L1.39067 1.625C1.53651 1.46875 1.68755 1.33073 1.8438 1.21094C2.00005 1.09115 2.16151 0.989583 2.32817 0.90625C2.49484 0.822917 2.64067 0.755208 2.76567 0.703125C2.89067 0.651042 3.03911 0.609375 3.21099 0.578125C3.38286 0.546875 3.50526 0.523438 3.57817 0.507812C3.65109 0.492188 3.77088 0.476562 3.93755 0.460938C4.10422 0.445312 4.19276 0.4375 4.20317 0.4375C6.81776 0.25 10.0834 0.15625 14 0.15625Z" fill="#484849"/>
</g>
<defs>
<clipPath id="clip0_2013_104088">
<rect width="28" height="20" fill="white"/>
</clipPath>
</defs>
</svg>
