<svg width="583" height="552" viewBox="0 0 583 552" fill="none" xmlns="http://www.w3.org/2000/svg">
<path d="M353.218 34.8183C374.657 50.1771 395.304 66.3906 411.006 87.9725C423.258 104.815 434.442 122.232 440.18 142.556C436.314 153.718 424.522 153.364 417.839 152.439C401.159 150.134 391.018 160.14 380.15 168.309C374.258 172.737 369.128 179.132 364.402 185.307C362.767 187.429 360.907 189.321 358.757 190.917C357.68 191.68 356.498 192.25 355.255 192.696C346.882 193.771 337.968 189.004 330.042 195.023C328.913 195.442 327.741 195.732 326.557 195.958C324.884 196.275 323.181 196.393 321.494 196.426C319.987 196.517 318.465 196.512 316.971 196.673C316.093 196.899 315.213 197.167 314.39 197.56C314.421 197.613 313.307 198.376 313.307 198.376C312.712 199.102 312.126 199.817 311.604 200.607C311.132 201.515 310.619 202.364 310.104 203.24C309.312 204.707 308.404 206.061 307.302 207.319C306.415 208.168 305.415 208.813 304.323 209.339C289.461 218.497 279.82 232.673 269.743 246.189C263.968 253.933 258.231 259.393 247.993 257.345C246.778 257.179 245.579 256.889 244.396 256.556C240.239 254.782 236.196 255.825 232.157 257.114C229.62 257.792 227.033 258.033 224.42 258.114C213.526 257.926 202.401 259.543 192.071 254.599C185.796 251.595 181.839 256.394 177.112 258.635C175.919 259.248 174.649 259.705 173.354 260.054C150.044 263.88 127.046 258.872 103.893 257.738C93.0414 257.206 81.9162 255.465 71.1945 259.345C68.7963 260.312 66.3495 261.118 63.7794 261.462C57.2513 260.242 51.2777 259.775 48.1749 267.782C47.1535 270.421 43.7444 270.646 40.8353 270.087C39.5235 269.62 38.421 268.873 37.4747 267.852C35.48 264.896 34.055 261.661 32.603 258.426C20.7788 213.913 26.8547 170.561 45.7767 129.831C82.6796 50.3869 146.248 6.94851 233.599 0.467454C272.212 -2.3969 308.873 8.14694 343.451 25.3868C347.609 27.4719 351.484 30.1106 353.218 34.8183Z" fill="#FF7570"/>
<path d="M431.362 309.9C424.022 326.334 414.66 341.407 402.153 354.511C398.21 358.642 394.593 359.175 390.183 355.82C386.283 352.849 382.914 349.571 386.418 344.333C389.677 339.457 388.41 334.798 386.602 329.907C385.13 325.914 382.479 323.976 378.293 324.025C374.712 324.068 372.166 325.7 370.757 329.021C370.579 329.447 370.515 329.919 370.315 330.327C364.163 342.704 364.163 342.704 352.248 339.512C351.886 340.325 351.162 341.168 351.221 341.947C352.147 354.404 351.564 354.983 340.466 352.226C336.069 351.131 332.147 349.69 327.443 352.953C321.153 357.32 316.409 351.389 311.371 348.571C309.512 346.927 307.581 347.81 305.672 348.433C304.822 348.635 303.951 348.767 303.22 348.835C303.365 348.819 302.72 349.092 302.72 349.092C302.72 349.092 303.381 349.141 303.494 349.104C305.29 348.819 306.946 348.491 308.539 347.813C309.607 347.685 310.576 347.921 311.472 348.476C310.776 357.204 305.258 359.954 297.391 359.948C288.315 359.939 279.404 358.991 271.763 366.633C267.865 370.531 262.789 367.86 258.993 363.141C249.922 351.868 236.264 353.389 229.768 366.21C227.515 370.654 226.903 375.291 233.828 376.533C234.092 377.118 234.35 377.704 234.619 378.29C234.576 380.311 233.764 382.004 232.441 383.488C221.343 399.987 219.993 400.302 207.615 389.397C207.733 389.495 207.115 388.931 207.115 388.931C207.115 388.931 207.4 389.71 207.54 389.765C220.541 400.769 220.654 400.744 232.129 384.239C235.167 379.09 241.867 377.784 244.647 372.359C244.631 371.795 244.625 371.234 244.625 370.675C249.169 367.388 252.401 367.698 253.089 373.99C253.406 376.873 252.519 380.581 250.395 381.516C238.264 386.84 233.715 399.852 223.606 407.117C220.041 409.68 217.536 407.172 214.804 405.767C203.996 400.223 200.13 400.861 192.322 409.674C185.112 417.81 185.332 416.979 174.062 414.059C161.533 410.815 149.08 408.083 139.277 398.873C144.864 394.859 149.198 389.811 152.887 383.966C156.398 378.391 160.866 373.423 168.68 375.355C173.707 376.603 176.014 373.512 178.847 370.145C184.859 363.006 192.371 357.081 200.953 353.861C218.407 347.313 233.473 337.089 248.271 326.212C249.019 325.663 249.685 324.829 250.535 324.642C261.337 322.201 271.876 322.992 282.357 314.42C289.696 308.419 304.801 308.155 317.161 310.848C327.658 313.136 336.719 306.574 346.253 303.361C351.877 301.469 356.636 297.159 363.006 297.342C368.272 299.996 373.439 303.017 379.726 302.318C382.064 302.753 384.203 303.694 386.253 304.865C387.698 305.693 389.027 306.692 390.312 307.729C391.57 308.637 392.856 309.526 394.27 310.191C396.403 310.829 398.508 310.277 400.631 310.041C402.448 309.719 404.363 309.557 405.842 308.434C418.984 298.427 418.968 298.411 431.362 309.9Z" fill="#E6E9FB"/>
<path d="M364.611 298.818C353.706 305.305 341.521 308.943 330.067 314.214C328.449 314.963 326.421 315.585 324.74 315.315C312.049 313.27 299.622 315.315 287.002 316.291C280.463 316.793 277.995 318.483 276.054 323.571C275.242 325.705 274.645 328.033 273.35 329.842C270.828 333.369 268.44 334.507 264.741 330.219C258.778 323.301 255.428 322.927 249.669 329.815C244.953 335.454 238.748 338.361 232.925 341.655C228.655 344.068 223.644 344.298 222.832 350.65C222.525 353.054 219.96 353.219 217.315 353.176C208.298 353.02 200.404 356.639 193.871 362.582C188.445 367.519 180.235 369.583 178.842 379.019C178.293 382.754 172.825 382.733 169.48 380.031C164.522 376.026 161.361 377.538 158.484 382.583C156.909 385.346 152.978 387.548 152.801 390.188C152.144 399.787 145.256 398.318 139.31 398.888C130.168 397.008 123.06 391.875 117.043 384.996C142.627 375.652 161.189 355.685 183.348 341.161C186.805 340.321 190.575 340.72 193.737 338.597C194.758 337.926 195.817 337.34 196.882 336.754C200.178 334.856 203.168 332.476 206.63 330.854C215.529 327.226 224.977 325.414 234.038 322.222C253.804 315.269 273.011 307.707 286.83 290.865C304.472 286.232 322.847 285.754 340.527 280.692C349.925 277.999 359.566 281.326 365.455 290.725C366.348 292.794 366.608 294.917 365.936 297.104C365.501 297.663 365.056 298.243 364.611 298.818Z" fill="#E7E6F7"/>
<path d="M453.494 220.921C453.5 224.635 453.506 228.343 453.512 232.057C449.818 238.043 449.8 236.931 442.767 236.662C434.783 236.356 426.952 239.134 419.99 243.546C415.722 246.249 410.84 248.248 406.848 250.994C386.081 265.279 364.316 254.74 343 254.676C337.265 253.531 332.721 249.984 327.842 247.173C325.154 246.233 323.773 247.765 322.702 249.92C322.132 251.043 321.429 252.048 320.637 253.01C310.245 261.35 307.366 268.073 296.414 249.559C297.07 242.837 302.108 243.1 306.894 242.939C310.444 243.605 312.813 242.267 315.148 239.392C320.423 232.9 328.241 231.664 335.393 233.706C348.035 237.317 357.406 234.244 365.277 223.968C368.364 219.938 373.129 217.557 378.195 216.235C387.109 215.789 394.04 219.567 399.407 226.548C408.532 213.102 432.141 210.738 453.494 220.921Z" fill="#EFC1CB"/>
<path d="M445.305 270.996C445.292 273.768 445.289 276.541 445.277 279.315C436.649 287.736 426.06 287.864 415.102 286.494C407.615 285.14 404.378 291.046 400.168 295.265C396.581 299.741 392.276 301.998 386.501 299.65C385.274 299.252 384.096 298.72 382.945 298.14C377.993 295.324 372.74 292.997 368.192 289.471C364.891 286.478 361.902 282.953 366.965 279.47C372.997 275.327 376.032 267.782 383.451 265.358C399.616 251.724 417.667 256.878 435.366 260.527C440.438 261.575 444.384 265.24 445.305 270.996Z" fill="#E7E2F1"/>
<path d="M342.319 251.51C351.11 249.533 360.239 256.186 368.95 250.511C369.37 250.237 370.721 250.978 371.377 251.553C380.392 259.426 387.931 254.407 397.456 251.021C410.991 246.211 420.855 233.711 436.277 233.534C438.413 233.507 441.758 231.25 442.666 233.051C447.499 242.638 450.098 233.932 453.507 232.051C454.36 238.79 452.537 245.147 450.763 251.516C447.21 262.672 438.244 262.898 431.175 257.986C418.873 249.441 407.106 257.008 396.434 259.029C389.96 260.259 381.362 265.896 374.179 270.368C369.564 277.263 361.702 281.213 355.391 277.574C346.431 272.41 340.398 263.338 342.319 251.51Z" fill="#ECCEDA"/>
<path d="M186.875 343.177C175.847 352.904 160.909 357.94 152.973 371.39C152.285 372.559 151.376 374.34 150.392 374.472C138.632 375.987 129.695 386.411 117.049 384.982C115.199 384.052 113.349 383.123 111.499 382.194C110.66 381.185 109.639 380.351 108.719 379.419C107.854 378.453 106.821 377.619 105.945 376.659C105.025 376.631 104.111 376.616 103.192 376.616C102.315 375.625 101.288 374.788 100.369 373.837C99.4221 372.927 98.5997 371.912 97.5887 371.068C96.8682 370.36 96.5669 369.602 96.6961 368.802C96.8305 367.98 96.9974 367.566 97.2018 367.566C99.4816 365.104 102.498 363.733 105.627 363.251C127.824 359.798 147.676 350.138 167.701 340.69C172.852 338.261 178.541 335.547 184.81 336.446C187.693 338.025 188.758 340.153 186.875 343.177Z" fill="#E9DDEC"/>
<path d="M453.509 220.925C444.945 220.941 436.237 221.608 428.244 217.755C425.51 216.438 424.058 217.131 422.576 219.205C421.171 221.167 419.649 221.844 416.891 221.619C404.313 220.597 404.347 220.775 405.771 232.474C405.912 233.608 405.025 234.865 404.19 237.311C395.927 229.706 390.61 219.034 378.511 218.179C377.489 211.214 379.882 205.545 385.028 200.896C386.182 200.246 387.425 199.865 388.747 199.773C396.544 200.509 392.313 208.167 396.185 212.413C402.003 207.055 402.089 194.996 411.481 195.216C418.882 195.388 426.188 189.46 433.942 195.533C440.26 200.482 449.962 200.853 453.503 209.774C453.509 213.488 453.509 217.207 453.509 220.925Z" fill="#F0BAC2"/>
<path d="M448.431 170.344C452.031 174.498 450.754 179.581 451.125 184.354C452.298 188.723 454.335 193.753 449.401 196.606C445.82 198.675 442.258 195.456 439.739 192.974C427.256 180.678 416.728 194.333 405.737 196.306C399.791 197.375 393.353 200.293 386.854 201.486C376.299 205.006 373.019 215.996 365.415 222.644C361.883 225.734 360.055 230.339 354.323 227.303C352.344 210.514 362.028 195.671 377.6 191.372C381.494 190.297 385.863 190.158 388.784 186.718C403.964 168.855 424.111 173.149 443.543 174.347C445.222 173.057 446.345 171.102 448.431 170.344Z" fill="#F5A3A7"/>
<path d="M448.403 170.35C448.278 173.311 448.155 176.272 448.032 179.239C443.423 180.556 441.545 176.987 439.391 174.214C437.464 171.737 434.798 170.243 432.288 171.705C423.377 176.901 413.813 174.902 404.424 174.945C399.373 174.972 396.191 177.616 393.018 181.329C384.964 190.777 374.801 191.895 363.654 187.472C361.972 177.052 372.638 176.815 377.36 172.349C390.824 159.597 404.859 145.748 426.71 157.205C434.255 161.161 436.977 151.117 442.509 148.559C446.424 155.298 447.79 162.719 448.403 170.35Z" fill="#F99091"/>
<path d="M414.179 282.243C420.276 283.103 426.121 286.225 432.322 280.937C435.403 278.309 441.19 282.947 445.222 279.309C441.841 290.073 437.14 300.235 431.328 309.898C428.628 309.791 426.133 309.585 423.648 307.908C413.642 301.143 412.663 301.654 409.776 314.207C405.86 313.713 401.914 313.213 397.968 312.713C397.477 312.284 396.996 311.855 396.498 311.422C395.434 309.72 394.958 307.85 394.848 305.862C394.526 301.713 396.925 298.531 398.692 295.124C402.457 289.149 407.345 284.527 414.179 282.243Z" fill="#E7E6F7"/>
<path d="M386.848 201.483C391.898 197.856 399.388 198.124 402.625 191.606C411.794 193.685 417.615 187.28 424.374 183.142C427.016 181.524 429.686 182.766 432.285 183.916C438.124 186.506 443.577 189.666 447.55 194.857C452.174 191.81 450.158 187.64 451.11 184.356C455.617 192.471 453.061 201.257 453.512 209.764C444.629 205.116 435.758 200.457 426.854 195.851C426.117 195.47 424.644 195.083 424.411 195.384C420.827 200.086 417.734 207.008 411.917 197.334C408.287 200.897 402.199 203.498 403.62 209.582C404.865 214.94 401.463 216.165 398.483 217.379C392.273 219.911 387.354 215.526 389.634 209.034C391.1 204.858 392.773 202.251 386.848 201.483Z" fill="#F2B1B7"/>
<path d="M442.57 148.558C443.7 158.205 435.617 160.456 429.698 164.283C427.578 165.653 425.142 164.82 423.749 162.617C417.216 152.309 407.351 158.414 398.919 157.485C391.892 172.166 374.019 174.031 364.915 186.246C364.666 186.574 364.737 187.133 364.657 187.584C365.216 188.788 364.988 189.82 363.979 190.68C362.715 191.051 361.672 190.707 360.812 189.734C360.186 187.875 360.398 186.182 361.834 184.747C369.023 171.871 379.346 161.999 392.116 154.959C395.734 152.965 399.493 151.417 402.558 148.537C404.7 146.527 407.489 145.286 410.146 146.817C421.368 153.26 430.331 144.813 440.232 142.566C442.141 144.119 442.543 146.264 442.57 148.558Z" fill="#FB8785"/>
<path d="M372.945 268.192C375.084 265.499 374.961 259.051 381.328 263.554C385.566 266.553 388.033 262.726 390.546 260.286C393.89 257.041 397.195 253.822 402.325 254.348C411.074 255.251 418.413 252.048 424.817 246.352C432.783 259.384 439.466 260.593 450.81 251.516C449.892 257.073 448.972 262.629 448.048 268.186C447.085 269.073 446.149 269.992 445.293 270.986C437.152 260.045 423.243 264.559 412.936 259.185C411.574 258.475 407.864 261.039 405.962 262.839C401.405 267.144 400.337 254.364 395.271 261.028C392.577 264.564 389.34 268.213 384.087 268.202C380.371 270.115 376.655 270.513 372.945 268.192Z" fill="#EAD7E5"/>
<path d="M432.076 488.291C425.759 495.044 417.876 500.763 417.477 512.033C414.154 503.419 412.445 495.378 408.723 488.052C409.757 486.945 410.864 486.865 412.046 487.806C415.489 491.091 418.698 495.234 423.359 489.03C424.568 487.423 426.912 486.666 428.738 485.516C430.156 486.077 431.757 486.402 432.076 488.291Z" fill="#6A7187"/>
<path d="M370.26 401.443C373.991 403.823 377.716 406.199 381.555 408.644C385.793 406.552 384.878 400.342 389.573 398.781C390.444 396.911 391.96 395.761 393.844 396.76C394.703 397.214 395.612 399.437 395.219 400.094C391.751 405.899 388.763 412.299 384.083 416.967C380.122 420.923 378.658 414.164 375.786 412.722C372.963 410.428 369.134 409.036 368.631 404.678C368.775 403.403 369.324 402.329 370.26 401.443Z" fill="#777E94"/>
<path d="M559.152 401.617C558.115 407.223 559.017 415.837 553.469 416.944C546.673 418.293 546.658 409.103 543.727 404.454C542.527 402.552 541.343 400.645 540.149 398.74C541.113 397.661 541.272 395.861 543.055 395.523C546.875 397.952 547.216 403.687 552.512 404.953C553.657 402.939 554.964 400.645 556.265 398.348C558.081 398.676 558.351 400.381 559.152 401.617Z" fill="#6C748A"/>
<path d="M462.444 426.588C464.104 426.873 465.817 428.863 467.406 427.072C469.241 425.021 470.484 422.435 472.306 420.365C474.301 418.102 476.532 413.858 479.925 416.937C483.712 420.381 478.98 422.307 476.952 424.401C474.028 427.428 471.334 430.565 470.097 434.699C467.477 437.293 464.844 437.272 462.208 434.727C460.422 431.979 458.633 429.237 456.848 426.493C458.741 425.073 460.606 425.223 462.444 426.588Z" fill="#71798F"/>
<path d="M297.835 415.645C302.357 418.801 306.772 419.687 311.767 416.203C314.611 414.222 317.403 411.251 322.73 412.603C320.478 420.411 313.46 422.143 307.664 424.296C302.363 426.268 297.792 423.603 295.275 418.258C296.098 417.353 296.953 416.488 297.835 415.645Z" fill="#616980"/>
<path d="M292.997 526.674C298.218 524.77 297.363 518.777 300.531 515.496C302.923 516.646 301.815 519.483 303.24 521.096C301.573 527.097 299.88 533.09 296.535 538.996C291.099 536.466 289.991 530.688 286.706 526.76C288.776 524.868 290.879 525.196 292.997 526.674Z" fill="#838BA0"/>
<path d="M494.845 529.104C500.512 523.379 503.722 514.556 515.136 512.648C511.669 521.827 503.722 525.277 500.929 532.339C500.049 533.247 498.99 533.563 497.751 533.296C496.097 532.37 495.017 531.048 494.845 529.104Z" fill="#737B90"/>
<path d="M244.694 494.316C251.271 498.897 256.266 493.831 263.428 492.359C261.191 499.56 257.115 503.39 251.932 504.074C247.722 504.626 245.098 500.682 244.694 494.316Z" fill="#656C82"/>
<path d="M228.059 438.221C232.656 440.751 236.291 435.399 240.91 436.2C236.554 448.242 232.172 449.184 222.939 440.508C224.321 439.021 226.279 438.822 228.059 438.221Z" fill="#7A8297"/>
<path d="M498.051 532.225C499.002 532.261 499.96 532.304 500.914 532.344C499.742 540.86 492.933 536.717 488.567 537.567C484.387 538.379 481.479 536.426 481.948 531.489C487.557 526.502 492.681 532.068 498.051 532.225Z" fill="#C2C9DC"/>
<path d="M181.528 430.77C185.125 428.682 188.992 428.519 193.062 428.434C189.051 439.176 188.884 439.21 181.528 430.77Z" fill="#61697F"/>
<path d="M339.99 446.422C336.225 450.179 333.356 454.843 328.634 457.637C326.569 456.836 324.623 455.821 322.844 454.497C322.862 451.749 323.194 449.375 326.94 451.102C329.278 448.559 330.628 445.008 334.329 443.84C335.931 445.324 338.83 443.972 339.99 446.422Z" fill="#7A8197"/>
<path d="M326.928 451.101C325.568 452.236 324.203 453.376 322.844 454.508C322 454.192 321.067 454.008 320.321 453.536C317.063 451.49 310.932 449.522 313.942 445.241C317.093 440.763 320.459 447.212 323.859 448.491C325.041 448.936 325.912 450.212 326.928 451.101Z" fill="#7C8399"/>
<path d="M293.014 526.674C290.917 526.705 288.82 526.732 286.723 526.766C284.545 524.046 277.587 527.094 278.668 522.626C279.969 517.241 285.244 520.366 288.578 521.924C290.401 522.773 291.557 525.039 293.014 526.674Z" fill="#50586F"/>
<path d="M412.034 487.801C410.926 487.881 409.818 487.967 408.71 488.047C406.026 487.817 403.35 487.584 400.665 487.348C399.763 486.832 399.1 486.09 398.655 485.155C406.602 479.469 407.673 479.684 412.034 487.801Z" fill="#51596F"/>
<path d="M498.075 532.214C492.57 535.008 487.446 529.479 481.972 531.478C480.971 527.001 482.987 525.498 487.127 526.523C489.75 527.173 492.279 528.222 494.85 529.092C495.924 530.135 497.001 531.178 498.075 532.214Z" fill="#4D546C"/>
<path d="M369.993 405.24C371.923 407.733 373.859 410.226 375.79 412.72C370.984 411.554 365.283 411.683 364.375 404.86C366.403 402.719 368.293 402.541 369.993 405.24Z" fill="#B8BFD2"/>
<path d="M432.08 488.277C430.966 487.354 429.852 486.428 428.741 485.505C431.408 483.454 434.074 481.405 436.734 479.357C439.521 478.814 440.984 479.571 440.027 482.705C438.134 485.64 435.117 486.971 432.08 488.277Z" fill="#565E74"/>
<path d="M558.934 392.613C559.643 391.512 560.278 390.353 561.085 389.326C562.294 387.799 563.859 387.011 565.574 388.449C566.866 389.534 565.973 390.911 565.353 391.939C564.451 393.432 563.251 394.748 562.177 396.134C559.37 396.548 557.474 396.125 558.934 392.613Z" fill="#61697F"/>
<path d="M303.26 521.092C301.013 519.877 300.899 517.626 300.55 515.492C301.448 513.52 302.373 510.607 304.642 511.064C307.824 511.704 305.798 514.492 305.368 516.283C304.959 517.96 303.981 519.497 303.26 521.092Z" fill="#5E657C"/>
<path d="M462.181 434.739C464.81 434.726 467.44 434.72 470.076 434.711C470.033 437.431 469.536 440.213 466.219 440.188C463.046 440.154 462.251 437.517 462.181 434.739Z" fill="#BAC1D4"/>
<path d="M440.002 482.703C438.904 481.587 437.808 480.473 436.71 479.354C437.495 478.247 438.223 477.097 439.07 476.045C440.288 474.545 441.877 473.337 443.528 475.045C444.105 475.637 443.654 477.468 443.319 478.63C442.819 480.397 441.819 481.924 440.002 482.703Z" fill="#747C91"/>
<path d="M558.983 392.617C560.063 393.795 561.149 394.966 562.23 396.144C561.208 397.965 560.18 399.787 559.158 401.609C558.198 400.517 557.234 399.431 556.271 398.343C556.234 395.987 557.068 394.046 558.983 392.617Z" fill="#687085"/>
<path d="M369.984 405.247C368.115 405.118 366.237 404.989 364.365 404.866C364.028 399.766 365.301 397.439 370.254 401.447C370.162 402.71 370.076 403.98 369.984 405.247Z" fill="#656D83"/>
<path d="M322.844 454.504C325.305 454.562 327.446 455.231 328.634 457.641C324.789 460.131 324.445 456.154 322.844 454.504Z" fill="#7C8399"/>
<path d="M339.953 446.426C337.956 445.803 335.575 446.036 334.289 443.853C336.391 442.917 338.649 441.838 340.72 443.429C341.92 444.353 341.349 445.702 339.953 446.426Z" fill="#4E566C"/>
<path d="M228.074 438.21C226.875 440.102 224.95 440.369 222.955 440.498C221.971 438.826 221.949 436.72 223.659 436.211C224.826 435.855 226.584 437.474 228.074 438.21Z" fill="#636B81"/>
<path d="M462.408 426.591C460.542 426.56 458.671 426.527 456.805 426.496C456.514 425.002 457.035 423.659 458.505 423.512C460.549 423.31 461.807 424.674 462.408 426.591Z" fill="#444C63"/>
<path d="M543 395.508C542.03 396.581 541.063 397.651 540.097 398.725C539.262 396.029 538.391 393.3 543 395.508Z" fill="#4A5169"/>
<path d="M233.847 376.535C235.046 374.518 237.019 373.855 239.17 373.512C239.46 374.048 239.751 374.585 240.041 375.128C239.057 378.241 237.057 378.621 234.395 377.219L233.847 376.535Z" fill="#E6E9FB"/>
<path d="M239.181 373.513C240.573 371.732 242.563 371.103 244.655 370.68L245.01 371.057C244.967 375.749 242.649 375.721 239.401 373.759L239.181 373.513Z" fill="#E6E9FB"/>
<path d="M297.786 415.64C296.93 416.511 296.081 417.376 295.226 418.247C294.634 415.962 295.409 415.018 297.786 415.64Z" fill="#484F66"/>
<path d="M398.683 485.156C399.355 485.886 400.024 486.619 400.696 487.349C398.373 488.134 398.087 487.048 398.683 485.156Z" fill="#4F576E"/>
<path d="M69.6982 257.061C74.3119 253.848 79.0548 253.041 84.9695 252.95C94.6697 252.8 104.988 257.357 114.296 250.86C114.877 250.451 116.635 250.543 116.796 250.892C121.335 260.694 132.734 251.816 138.434 258.802C139.154 259.689 142.074 259.399 143.693 258.835C153.215 255.508 163.018 257.712 172.664 257.11C171.96 265.036 164.626 262.489 160.421 264.891C157.931 265.837 155.372 266.525 152.737 266.89C134.557 265.563 116.377 268.454 98.3797 267.831C89.4429 267.524 77.1026 269.583 70.3546 258.894C70.1232 258.287 69.9081 257.674 69.6982 257.061Z" fill="#FD7E7B"/>
<path d="M244.966 254.28C256.876 256.602 264.017 250.803 268.561 240.502C270.255 236.67 272.244 232.763 276.024 230.807C282.568 227.426 285.918 221.725 289.601 215.743C293.091 210.084 297.672 204.307 306.12 206.989C309.797 211.928 307.502 216.716 303.366 218.463C296.467 221.375 295.726 226.642 295.145 232.58C293.317 243.634 282.105 244.435 275.664 250.454C272.588 254.667 271.066 260.461 264.657 261.277C257.908 258.934 249.574 266.91 243.81 258.107C243.718 256.688 244.079 255.404 244.966 254.28Z" fill="#FC8482"/>
<path d="M292.278 232.068C292.848 225.393 289.31 216.709 301.672 216.397C304.597 216.322 305.898 210.814 306.156 206.993C306.162 206.079 306.178 205.166 306.205 204.258C307.238 203.435 307.968 202.317 308.953 201.447C308.953 200.528 308.962 199.614 308.98 198.695C309.984 197.846 310.818 196.836 311.727 195.895L312.798 195.062L314.151 194.944C315.492 195.96 316.771 195.283 318.081 194.783C319.146 194.74 320.174 194.837 321.211 195.057C322.926 194.933 324.402 194.305 325.654 193.155C326.562 193.122 327.471 193.101 328.379 193.09C337.854 194.042 347.096 192.617 356.256 190.35C358.103 188.759 359.932 188.705 361.788 190.333L361.816 190.36C365.74 196.132 361.343 199.19 357.422 201.232C348.431 205.918 341.055 214.006 328.293 209.782C322.132 207.74 315.142 214.834 309.376 219.649C303.995 224.147 300.677 231.681 292.278 232.068Z" fill="#FB8785"/>
<path d="M39.2288 270.968C38.863 270.086 38.7986 269.183 39.0299 268.259C42.1431 267.937 46.477 268.662 46.8857 264.444C47.8805 254.185 53.6285 255.356 60.3825 258.081C61.662 258.597 62.893 259.242 64.1459 259.827C65.2968 258.532 66.4312 258.543 67.5604 259.849C65.1677 270.35 54.7685 271.027 47.805 275.944C43.6807 276.465 41.1269 274.278 39.2288 270.968Z" fill="#FC817F"/>
<path d="M175.415 257.047C180.652 249.717 186.89 247.121 195.547 251.7C205.048 256.725 215.517 253.425 225.524 254.285C225.831 254.919 226.137 255.559 226.443 256.193C225.911 257.558 224.986 258.573 223.696 259.261C216.345 261.868 208.565 260.546 201.048 261.696C192.568 259.831 183.309 262.163 175.415 257.047Z" fill="#FC8482"/>
<path d="M175.435 257.051C184.022 255.965 192.561 255.337 200.535 259.824C200.04 260.372 199.54 260.92 199.051 261.479C191.281 263.715 183.731 266.767 175.897 268.626C170.187 269.986 164.078 269.82 159.567 264.687C159.292 264 159.024 263.312 158.755 262.618C162.142 257.572 169.326 262.14 172.719 257.11C173.622 257.088 174.526 257.073 175.435 257.051Z" fill="#FA8D8D"/>
<path d="M356.231 190.344C352.794 194.331 347.176 193.799 343.046 197.175C337.514 201.699 333.046 195.498 328.357 193.085C334.961 188.699 341.466 184.578 349.661 190.054C351.22 191.096 354.009 190.296 356.231 190.344Z" fill="#FB8583"/>
<path d="M225.533 257.088C225.527 256.158 225.522 255.223 225.517 254.294C228.286 254.277 231.055 254.267 233.819 254.25C237.551 252.289 241.277 252.273 245.003 254.283C244.998 255.218 244.992 256.147 244.987 257.083C238.508 262.306 232.023 262.548 225.533 257.088Z" fill="#FA8D8D"/>
<path d="M245.031 254.279C241.304 254.268 237.578 254.258 233.847 254.247C237.584 250.549 241.31 250.453 245.031 254.279Z" fill="#FC8482"/>
<path d="M39.0497 268.307C36.5007 266.007 36.2427 263.056 36.6566 259.918C39.5121 262.127 39.2163 265.233 39.0497 268.307Z" fill="#FC817F"/>
<path d="M325.621 193.148C324.194 194.938 323.955 199.092 320.055 195.916C319.017 195.309 318.674 194.696 319.017 194.089C319.361 193.482 319.705 193.175 320.055 193.175C321.911 193.159 323.764 193.154 325.621 193.148Z" fill="#FC8482"/>
<path d="M361.834 190.334C359.984 190.339 358.133 190.35 356.283 190.355C357.376 187.733 359.241 185.884 361.834 184.75C361.834 186.61 361.834 188.469 361.834 190.334Z" fill="#FB8583"/>
<path d="M66.9483 259.858C66.0072 259.848 65.0661 259.837 64.125 259.832C65.3996 257.73 67.4269 257.15 69.7015 257.059L69.7497 257.123C70.3358 259.59 69.4377 260.541 66.9483 259.858Z" fill="#FD7E7B"/>
<path d="M320.095 193.165C320.095 194.079 320.095 194.992 320.095 195.906C319.153 195.911 318.217 195.917 317.275 195.917C316.367 196.782 315.452 196.825 314.544 195.917L314.516 195.879C313.872 195.266 313.657 194.654 313.878 194.046C314.099 193.439 314.314 193.133 314.535 193.133C316.385 193.149 318.238 193.154 320.095 193.165Z" fill="#FB8583"/>
<path d="M314.568 193.148C314.568 194.062 314.562 194.981 314.553 195.895C313.623 195.889 312.691 195.889 311.758 195.889C312.697 194.976 313.633 194.062 314.568 193.148Z" fill="#FC8482"/>
<path d="M39.2321 270.982C41.8725 272.24 44.3889 273.868 47.4913 273.782C60.5631 263.157 71.8282 270.063 83.2007 277.286C85.8463 278.968 89.3897 279.011 91.8794 281.252C87.5401 289.216 75.3772 292.65 64.252 287.362C59.2136 284.965 55.9605 284.992 52.0406 288.077C50.8629 288.55 49.6264 288.743 48.3573 288.673C46.4861 288.045 45.7868 286.045 44.1897 285.083C42.523 282.203 40.8559 279.322 39.1943 276.442C39.1999 274.625 39.2161 272.804 39.2321 270.982Z" fill="#F89697"/>
<path d="M206.066 384.949C206.84 385.384 207.738 385.685 208.378 386.271C219.057 396.05 219.035 396.05 228.235 385.206C229.101 384.191 230.236 383.4 231.241 382.508C232.537 382.965 233.473 383.814 234.048 385.062C233.688 385.89 233.467 386.813 232.94 387.522C219.551 405.661 223.966 405.45 206.41 392.333C204.356 390.797 200.882 391.22 200.167 387.847C201.57 385.728 203.673 385.05 206.066 384.949Z" fill="#6A7187"/>
<path d="M234.017 385.049C233.081 384.2 232.146 383.347 231.21 382.498C232.264 380.734 233.312 378.971 234.366 377.208C236.028 376.058 237.695 374.908 239.356 373.758C241.518 373.457 243.599 372.997 244.964 371.056C246.653 371.265 248.712 369.707 249.992 371.593C251.589 373.954 250.4 376.506 248.271 377.205C242.959 378.934 238.856 382.62 234.017 385.049Z" fill="#586076"/>
<path d="M303.75 352.244C301.884 354.2 299.771 354.093 297.556 352.965C295.529 351.937 293.05 350.98 293.792 348.107C294.593 345.022 297.287 346.092 299.432 346.178C300.798 346.23 302.169 346.295 303.535 346.356C304.379 347.135 304.917 348.079 305.1 349.22C304.89 350.33 304.438 351.342 303.75 352.244Z" fill="#777E93"/>
<path d="M381.223 304.413C374.669 305.504 367.173 309.405 364.556 298.808L364.663 298.701C371.303 295.294 376.851 296.981 381.622 302.323C381.493 303.016 381.358 303.715 381.223 304.413Z" fill="#E7E6F7"/>
<path d="M206.024 384.935C204.669 387.143 202.497 387.686 200.131 387.833C198.615 386.085 199.104 384.215 200.604 383.098C202.959 381.35 204.734 382.764 206.024 384.935Z" fill="#676E84"/>
<path d="M311.445 348.494C310.659 348.592 309.898 348.773 309.156 349.049C308.573 348.865 307.993 348.684 307.413 348.5C306.477 347.672 305.885 346.651 305.644 345.427C310.181 341.723 311.187 344.394 311.343 348.586L311.445 348.494Z" fill="#868CA1"/>
<path d="M303.759 352.239C303.63 351.239 303.501 350.234 303.366 349.234C304.522 347.461 306.157 347.452 307.944 347.995C308.367 348.338 308.787 348.688 309.205 349.038C308.174 351.433 306.039 351.96 303.759 352.239Z" fill="#868CA1"/>
<path d="M307.944 348.001C306.415 348.415 304.893 348.823 303.366 349.237C303.425 348.28 303.485 347.317 303.544 346.357C304.194 345.894 304.909 345.581 305.694 345.422C306.442 346.287 307.195 347.139 307.944 348.001Z" fill="#4B536A"/>
<path d="M398.008 312.716C396.133 315.396 394.249 315.365 392.362 312.722C392.749 312.335 393.136 311.943 393.528 311.553C395.222 310.965 396.723 311.188 397.928 312.618L398.008 312.716Z" fill="#E7E6F7"/>
<path d="M386.814 307.232C384.571 307.082 382.555 306.474 381.275 304.426L381.324 304.356C383.801 302.045 385.737 302.825 387.351 305.42C387.173 306.027 386.995 306.629 386.814 307.232Z" fill="#E7E6F7"/>
<path d="M389.57 310.001C388.637 309.071 387.714 308.145 386.79 307.216L386.848 307.136C388.165 306.651 389.22 306.989 390.009 308.145C389.858 308.765 389.714 309.381 389.57 310.001Z" fill="#E7E6F7"/>
<path d="M392.34 312.73C391.411 311.823 390.475 310.915 389.545 310.007L389.6 309.924C392.125 309.21 393.052 310.142 392.411 312.666L392.34 312.73Z" fill="#E7E6F7"/>
<path d="M77.9322 346.108C70.8506 341.395 66.8018 334.51 64.0059 326.724C64.3069 325.838 64.9037 324.494 65.4468 324.596C81.2341 327.573 95.4777 316.159 111.297 319.695C114.523 319.575 117.874 317.53 120.82 318.597C131.128 322.351 137.188 320.382 144.383 310.48C151.389 300.832 165.805 300.451 177.64 299.789C186.162 299.311 193.706 299.048 200.197 292.562C203.262 289.498 207.854 289.853 211.903 291.927C214.296 293.556 215.833 295.689 215.936 298.677C215.038 304.1 210.8 306.287 206.321 307.082C196.599 308.818 188.744 314.304 180.382 318.815C178.011 319.904 175.521 319.851 173.032 319.533C171.462 319.404 169.875 319.318 168.332 319.637C167.02 320.425 166.359 321.695 165.875 323.124C165.681 323.645 165.471 324.117 165.262 324.645C164.692 325.697 164.025 326.638 163.267 327.552C148.792 337.387 132.902 343.888 115.68 346.581C107.953 347.789 100.264 347.865 93.0798 351.966C86.3958 355.765 81.9113 350.88 77.9322 346.108Z" fill="#EEC7D2"/>
<path d="M111.453 323.786C100.64 322.955 89.708 320.999 80.825 330.183C78.0827 333.02 74.6252 330.757 72.1784 328.84C69.6191 326.834 67.5273 324.442 63.9999 326.712C59.2681 320.799 54.2785 315.034 52.918 307.208C62.5752 297.976 74.7651 299.545 85.1754 302.813C100.323 307.563 113.582 304.764 127.541 299.578C135.655 296.563 131.8 288.013 136.553 283.815C146.592 280.957 156.873 280.172 167.256 280.15C177.892 284.385 187.705 281.285 197.556 277.098C212.397 270.794 218.436 272.321 227.012 283.902C227.383 285.32 227.394 286.744 227.082 288.169C222.856 295.176 217.586 291.807 212.515 289.706C206.429 289.491 201.019 292.328 195.325 293.962C188.399 295.945 181.715 296.73 174.23 296.67C166.692 296.611 156.599 298.997 150.254 305.236C141.597 313.743 131.37 317.499 119.82 319.177C116.653 319.64 114.045 321.885 111.453 323.786Z" fill="#F0BAC2"/>
<path d="M183.9 337.66C175.743 344.201 163.731 343.346 156.579 351.972C155.31 353.502 153.197 352.487 151.573 351.488C148.304 349.479 145.932 351.11 145.411 354.11C144.465 359.501 140.093 361.065 136.383 361.086C122.918 361.172 110.67 367.115 97.5064 368.308C96.5708 369.323 95.662 369.256 94.7693 368.256C91.9841 364.558 89.1989 360.859 86.4189 357.164C88.4837 352.346 92.4732 352.389 96.8019 352.868C116.514 355.039 132.059 341.981 149.89 337.182C156.676 335.354 164.887 331.861 172.092 328.304C175.619 327.497 178.7 328.583 181.566 330.558C183.583 332.517 185.18 334.624 183.9 337.66Z" fill="#EAD6E4"/>
<path d="M136.526 284.892C136.65 288.476 137.968 291.813 137.161 295.688C135.989 301.309 134.784 305.109 127.628 303.948C120.546 302.803 114.05 303.921 112.308 312.835C111.614 316.384 108.227 315.571 107.108 314.154C102.64 308.49 97.8866 307.493 90.6384 308.898C86.4064 309.72 82.0029 304.625 75.7921 304.732C67.9793 304.872 60.5749 306.678 52.945 307.211L53.0094 307.214C52.1923 306.291 51.4016 305.351 50.6326 304.389C50.509 303.464 50.3801 302.54 50.2512 301.61C48.5789 300.127 49.2831 297.537 47.6645 296.026C47.412 295.161 47.2236 294.285 47.1055 293.393C47.4065 292.829 47.7078 292.27 48.0088 291.706C53.5903 283.865 61.0913 286.122 67.6676 289.046C74.5448 292.104 81.4703 293.216 88.7617 293.426C105.361 301.841 118.051 292.061 131.176 284.306C133.08 283.403 134.886 283.425 136.526 284.892Z" fill="#F2B2B9"/>
<path d="M172.729 329.107C170.616 331.849 170.922 338.415 164.411 334.186C162.222 332.763 158.34 333.971 158.012 334.949C154.538 345.186 142.843 339.914 137.396 346.25C135.047 348.979 131.718 348.964 128.422 347.599C125.878 346.551 123.615 346.934 123.62 350.126C123.631 358.241 118.464 356.799 113.199 356.514C104.295 356.036 95.3044 354.456 86.4535 357.161C85.6416 356.106 84.5177 355.383 83.6466 354.386C80.1194 352.742 78.2213 349.979 77.9688 346.094C84.0823 349.55 89.9703 352.813 96.1863 345.75C97.7079 344.021 101.294 343.334 103.881 343.441C116.388 343.968 128.045 341.055 139.041 335.379C141.472 334.127 144.322 337.829 146.403 334.121C145.016 333.063 143.666 332.036 142.311 331.006C142.053 330.049 142.752 329.098 143.762 329.57C152.269 333.536 157.926 327.709 164.174 323.851C169.895 320.913 172.632 322.851 172.729 329.107Z" fill="#ECCFDB"/>
<path d="M60.8846 381.409C60.702 391.065 51.2436 393.792 46.641 400.155C45.915 401.155 42.6189 401.642 41.6293 400.891C35.4566 396.199 25.6432 394.865 25.5303 384.313C30.1976 382.936 33.5152 385.549 36.7898 388.174C41.5216 391.979 45.3394 390.057 48.9205 386.364C52.2436 383.095 55.9647 380.807 60.8846 381.409Z" fill="#E5ECFE"/>
<path d="M50.8343 388.128C46.2207 394.74 41.0105 395.372 34.757 390.143C31.993 387.834 28.6323 386.233 25.5458 384.304C25.519 382.985 25.4922 381.67 25.4707 380.348C26.9172 377.487 28.6969 377.705 30.6811 379.784L30.4605 379.551C31.5091 380.284 32.5254 381.063 33.5094 381.884C37.8433 384.157 41.4784 389.806 47.3287 384.733L48.6677 384.942C49.5441 385.319 50.1838 385.935 50.5925 386.791L50.8343 388.128Z" fill="#72798E"/>
<path d="M60.9164 381.412C57.561 383.654 54.2109 385.896 50.8556 388.138C50.3825 387.852 49.9363 387.53 49.5113 387.175C49.2048 386.568 48.7479 386.111 48.1404 385.81L47.3447 384.74C48.9363 381.888 51.5172 380.134 54.1361 378.318C58.3462 375.399 59.6258 378.275 60.9164 381.412Z" fill="#7B8397"/>
<path d="M30.6811 379.788C28.9443 379.975 27.2075 380.159 25.4707 380.346C26.8472 376.841 28.5679 376.498 30.6811 379.788Z" fill="#E5ECFE"/>
<path d="M47.647 296.051C49.712 297.357 50.2229 299.377 50.2336 301.634C48.26 300.286 47.5988 298.335 47.647 296.051Z" fill="#F0BAC2"/>
<path d="M47.1043 293.404C45.2224 291.98 44.6204 289.986 44.5879 287.74C45.5345 286.783 46.4968 286.719 47.4756 287.697C49.2393 289.374 49.1476 291.174 47.7873 293.044L47.1043 293.404Z" fill="#F0BAC2"/>
<path d="M47.4481 287.707C46.4855 287.723 45.523 287.734 44.5607 287.75C44.3456 286.874 44.2164 285.987 44.168 285.09C45.2597 285.96 46.3564 286.831 47.4481 287.707Z" fill="#F5A2A6"/>
<path d="M94.749 368.27C95.6631 368.285 96.5775 368.3 97.4861 368.322C97.5023 369.242 97.5183 370.156 97.5235 371.076C96.5987 370.14 95.6738 369.205 94.749 368.27Z" fill="#E5ECFE"/>
<path d="M33.4932 381.893C31.8964 381.878 30.9175 381.05 30.4443 379.562C31.4607 380.341 32.4769 381.114 33.4932 381.893Z" fill="#E5ECFE"/>
<path d="M372.933 268.194C376.649 268.2 380.359 268.205 384.074 268.205C377.563 272.193 374.927 280.646 366.999 282.989C368.063 284.381 369.122 285.768 370.187 287.159C369.88 289.416 368.53 291.002 366.87 292.404C365.971 293.012 364.977 293.312 363.89 293.307C354.366 283.365 347.361 281.624 335.32 286.815C330.095 289.073 324.599 288.578 319.254 289.234C308.413 290.567 297.827 294.087 286.717 293.221C279.555 295.032 273.732 299.31 267.855 303.475C251.723 314.912 233.651 321.407 214.25 324.548C210.97 311.852 212.455 309.236 224.983 305.576C226.209 305.791 227.435 306.119 228.624 306.474C231.006 307.35 233.199 306.651 235.339 305.517C236.431 304.915 237.56 304.448 238.722 303.996C252.1 299.229 261.187 289.777 267.796 277.594C274.038 270.113 282.997 267.915 291.643 268.651C305.941 269.871 314.602 263.858 320.055 251.492C320.076 250.578 320.098 249.665 320.11 248.751C322.421 246.188 321.706 239.116 328.453 243.152C333.09 245.935 337.726 248.724 342.353 251.508C345.903 256.828 347.996 262.955 350.555 268.673C353.473 275.191 356.06 276.315 362.712 274.342C366.999 273.074 369.88 270.828 372.933 268.194Z" fill="#E9DBEA"/>
<path d="M214.344 323.803C222.087 318.939 230.266 316.232 239.455 314.306C248.828 312.346 257.495 305.966 265.556 299.829C271.669 295.17 278.192 290.795 286.671 293.225C284.005 296.309 280.897 298.921 278.982 302.753C275.369 309.982 270.519 315.759 261.243 315.661C255.603 315.603 251.145 319.66 246.219 321.681C233.062 327.075 219.382 330.519 205.967 334.905C203.466 327.204 204.02 321.819 214.344 323.803Z" fill="#E8E1F0"/>
<path d="M214.388 323.805C207.914 324.728 207.022 329.856 206.011 334.903C202.72 336.148 200.795 339.749 196.999 340.135C195.724 338.507 195.585 336.746 196.37 334.879C196.854 333.72 197.585 332.692 198.306 331.662C197.182 332.214 196.703 333.355 195.934 334.311C194.595 336.09 192.794 336.547 190.724 336.357C185.998 334.836 184.057 331.505 184.379 326.691C187.406 316.749 193.724 310.214 204.258 308.849C209.748 308.14 213.092 304.754 216.566 301.19C220.233 299.449 223.562 300.551 226.815 302.383C229.337 304.485 230.471 306.871 228.294 309.901C223.858 307.343 220.029 307.055 217.303 312.415C215.469 316.022 214.082 319.671 214.388 323.805Z" fill="#E8D5E3"/>
<path d="M185.973 327.445C187.156 330.724 189.065 333.428 192.157 335.179C191.597 337.78 192.544 339.574 195.022 340.558C193.549 345.413 190.785 346.201 186.806 343.165C186.635 340.902 185.897 338.936 183.876 337.657C182.886 335.836 181.897 334.008 180.908 332.186C175.815 328.81 171.987 323.802 166.438 321.018C165.707 316.102 170.772 317.681 172.546 315.574C174.412 316.503 176.278 317.43 178.139 318.359C183.478 319.043 185.247 322.796 185.973 327.445Z" fill="#817C90"/>
<path d="M392.439 312.67C391.503 311.756 390.561 310.842 389.625 309.928C388.702 308.999 387.775 308.073 386.845 307.144C385.587 305.043 383.565 304.446 381.298 304.355C376.541 300.174 370.138 300.83 364.685 298.712C364.424 296.912 364.163 295.112 363.896 293.317L364.955 293.032C370.352 288.475 374.881 292.581 379.625 294.51C381.506 295.047 382.835 296.493 384.43 297.492C389.266 300.072 394.292 302.388 397.803 306.865C397.846 308.788 397.888 310.714 397.931 312.636C396.106 312.642 394.271 312.652 392.439 312.67Z" fill="#C7C9DB"/>
<path d="M195.069 340.567C190.569 340.659 190.504 338.396 192.203 335.189C193.263 334.21 194.327 333.226 195.387 332.245C197.688 331.965 199.424 332.159 197.817 335.146C197.548 336.805 197.284 338.467 197.016 340.126C196.333 340.138 195.688 340.282 195.069 340.567Z" fill="#585B71"/>
<path d="M228.313 309.898C228.238 307.607 227.657 305.571 225.523 304.308C223.168 299.514 226.292 295.887 228.131 291.986C231.507 285.472 238.847 284.548 244.095 280.652C244.907 279.749 245.73 278.878 246.52 277.954C250.483 269.651 260.807 270.237 266.125 263.842C266.98 262.923 267.862 262.025 268.738 261.128C270.11 259.838 271.508 258.575 273.228 257.748C278.514 256.039 283.628 253.873 288.677 251.541C291.736 250.59 294.801 249.499 297.861 251.519C305.227 249.907 305.228 249.907 306.147 258.973C311.712 258.092 313.955 250.998 320.079 251.498C321.3 254.357 323.596 257.226 320.779 260.29C313.896 267.77 306.555 274.208 295.151 272.462C285.854 271.038 277.32 273.042 270.034 279.314C256.602 285.811 251.075 301.793 236.659 307.114C234.019 308.478 231.932 311.484 228.313 309.898Z" fill="#ECCDD9"/>
<path d="M353.473 226.483C357.238 226.499 360.859 226.359 361.942 221.619C363.476 214.913 367.916 211.049 374.553 210.313C373.93 206.411 369.438 206.54 370.095 201.488C375.489 201.488 381.178 201.488 386.867 201.488C381.715 205.868 384.894 214.402 378.536 218.18C374.038 223.801 364.12 224.591 364.197 234.555C364.206 235.796 360.196 237.752 358.152 236.634C353.829 234.27 351.212 237.301 348.241 239.01C344.286 241.283 340.672 242.062 337.29 238.247C332.666 233.034 327.781 238.494 322.991 237.935C318.932 237.462 318.002 240.869 317.039 244.212C315.593 249.258 312.556 249.484 308.953 245.996C308.855 245.4 308.757 244.803 308.64 244.206C298.504 233.115 298.558 232.249 309.905 224.049C311.543 223.027 313.277 222.205 315.124 221.657C327.456 221.775 338.827 229.471 351.592 226.273C352.221 226.333 352.844 226.402 353.473 226.483Z" fill="#F2B1B7"/>
<path d="M297.843 251.506C295.063 252.436 292.278 253.365 289.498 254.295C287.352 250.474 290.316 247.905 291.762 244.977C292.353 244.106 293.079 243.332 293.837 242.655C295.832 241.462 293.499 240.237 293.794 238.984C293.875 237.791 294.257 236.738 294.934 235.765C295.789 234.884 296.79 234.266 297.945 233.879C298.553 233.933 299.156 233.997 299.763 234.062C301.581 238.99 310.156 238.667 308.996 245.917L308.947 245.981C304.511 246.347 298.881 244.315 297.843 251.506Z" fill="#F2B1B7"/>
<path d="M328.431 243.148C324.215 242.879 322.914 246.947 320.085 248.747C321.018 240.187 321.871 239.617 328.431 243.148Z" fill="#ECCDD9"/>
<path d="M397.803 306.857C391.328 307.6 388.349 301.795 383.614 299.285C383.758 297.377 385.609 297.238 386.695 296.308C391.878 300.027 395.029 297.173 397.754 292.906C399.576 293.164 399.911 294.884 400.819 296.034C399.812 299.645 398.809 303.251 397.803 306.857Z" fill="#767B90"/>
<path d="M380.054 296.162C375.071 294.937 370.251 292.922 364.988 293.04C364.062 288.709 366.553 287.419 370.22 287.172C375.05 289.982 379.876 292.788 384.7 295.598C383.322 297.21 381.776 297.399 380.054 296.162Z" fill="#6C7085"/>
<path d="M400.821 296.033C399.799 294.991 398.778 293.948 397.756 292.906C401.478 286.623 405.332 280.556 414.221 282.249C410.226 287.306 404.175 290.358 400.821 296.033Z" fill="#555A70"/>
<path d="M380.018 296.154C381.564 295.966 383.114 295.778 384.663 295.59C385.436 295.552 386.115 295.794 386.688 296.31C385.663 297.304 384.636 298.293 383.608 299.287C382.411 298.239 381.211 297.196 380.018 296.154Z" fill="#4A5167"/>
<path d="M295.068 237.631C295.062 238.55 295.057 239.474 295.052 240.393C295.697 241.016 295.907 241.634 295.681 242.247C295.455 242.854 295.235 243.161 295.009 243.161C292.154 248.443 287.148 249.481 281.813 249.884C280.561 250.109 279.291 250.217 278.023 250.281C277.388 250.303 276.754 250.287 276.114 250.297C274.818 250.152 273.705 249.604 272.742 248.728C273.129 244.762 275.64 243.472 279.286 243.053C285.954 242.285 289.922 238.077 292.255 232.063C301.493 220.703 311.915 210.815 325.4 204.484C327.745 203.382 329.546 202.302 331.175 204.812C335.293 211.169 339.171 208.208 343.737 205.166C347.864 202.415 351.77 199.164 356.91 197.917C360.399 197.073 361.555 193.779 361.804 190.345C362.734 189.421 363.664 188.496 364.599 187.572C371.123 187.889 376.956 183.875 383.59 184.637C386.646 184.987 388.812 183.165 390.193 180.521C395.109 171.084 402.292 168.94 412.412 172.127C417.342 173.68 423.295 174.067 428.306 170.95C435.474 166.495 440.31 168.483 443.863 175.765C444.584 177.243 446.609 178.081 448.036 179.215C443.464 183.848 440.27 179.521 437.582 177.006C434.274 173.911 431.813 174.561 427.784 175.652C420.122 177.732 412.51 182.106 403.998 178.721C399.248 176.834 396.388 180.989 395.373 183.729C391.816 193.322 383.703 194.735 375.59 195.638C369.23 196.348 364.998 198.051 364.351 205.172C364.158 207.289 363.041 210.293 361.42 211.148C355.001 214.522 358.254 222.551 353.443 226.463C346.637 230.097 338.444 228.377 334.256 224.696C326.901 218.225 321.178 221.294 314.523 223.728C313.593 224.653 312.657 225.577 311.727 226.501C306.177 227.759 300.929 229.51 297.805 234.815C296.88 235.75 296.009 236.723 295.068 237.631Z" fill="#F7999A"/>
<path d="M91.987 282.116C81.5664 283.675 74.0009 277.742 66.6664 271.933C61.9346 268.187 58.7726 268.278 55.9229 273.631C53.2129 278.715 50.3844 279.381 47.4648 273.776C51.7072 265.984 62.1497 266.876 66.9515 259.868C67.887 258.954 68.8226 258.046 69.7582 257.133C70.6722 257.272 72.0168 257.068 72.4363 257.595C77.883 264.398 83.4375 263.383 88.6964 257.197C93.767 266.655 93.7615 266.639 102.182 262.399C103.371 261.803 105.704 260.911 105.79 261.077C111.565 271.766 118.109 261.217 124.212 261.663C133.95 262.372 143.736 262.27 153.146 265.393C153.367 266.021 153.587 266.65 153.813 267.279C152.038 274.641 146.634 274.872 140.187 275.845C129.896 277.398 119.039 272.373 109.301 278.677C103.628 280.273 98.4933 284.675 91.987 282.116Z" fill="#FA8D8D"/>
<path d="M153.182 265.397C154.45 263.295 156.472 262.72 158.741 262.629L158.795 262.71C158.742 267.261 156.424 267.245 153.23 265.461L153.182 265.397Z" fill="#FA8D8D"/>
<path d="M225.54 257.091C232.025 257.091 238.515 257.091 245 257.086C247.393 260.197 250.302 259.714 253.447 258.445C257.34 256.882 261.239 256 264.556 259.735C264.325 260.402 264.089 261.068 263.863 261.734C249.866 267.689 235.155 270.43 220.029 271.359C217.458 270.043 215.189 268.361 213.517 265.958C212.92 264.647 212.743 263.271 212.963 261.847C215.399 255.673 222.104 260.649 225.54 257.091Z" fill="#F7999B"/>
<path d="M272.741 248.734C273.693 248.745 274.639 248.75 275.591 248.761C279.543 253.7 277.226 257.08 272.817 259.95C271.924 260.88 271.037 261.815 270.144 262.744C266.923 264.448 264.46 264.62 264.412 259.912L264.52 259.74C270.171 258.236 268.859 251.55 272.741 248.734Z" fill="#F7999B"/>
<path d="M314.513 195.934C315.421 195.934 316.335 195.934 317.244 195.934C316.335 197.422 315.421 197.401 314.513 195.934Z" fill="#F7999A"/>
<path d="M225.512 257.088C223.028 261.398 216.887 258.362 214.376 262.624C208.956 265.676 203.456 269.11 200.466 259.872L200.504 259.824C208.446 255.342 217.135 257.658 225.512 257.088Z" fill="#FA8D8D"/>
<path d="M200.44 259.875C204.371 264.351 209.645 262.062 214.351 262.626C214.356 263.545 214.362 264.464 214.356 265.383C213.48 266.463 212.496 267.833 211.189 267.893C184.497 269.086 160.537 283.886 133.538 283.456C130.645 283.633 128.522 285.836 125.79 286.433C124.424 286.61 123.064 286.53 121.72 286.234C117.595 282.709 109.191 284.891 108.653 276.529C110.191 273.465 112.896 270.22 115.966 271.413C124.171 274.61 132.382 269.746 140.056 271.95C147.331 274.04 150.17 270.316 153.192 265.458C155.456 265.367 157.477 264.786 158.757 262.707C167.021 266.302 175.216 267.393 183.255 262.062C188.611 258.504 194.671 260.32 200.44 259.875Z" fill="#F7999B"/>
<path d="M108.699 276.523C112.232 281.155 120.518 277.855 122.636 284.858C113.011 293.096 102.478 298.615 89.2288 295.998C81.4479 295.977 73.9631 298.207 66.5642 291.543C61.9828 287.421 53.9226 289.92 47.7873 293.042C47.6852 291.264 47.5778 289.479 47.4648 287.706C51.675 284.288 55.8907 280.87 60.1761 277.393C63.8435 279.059 60.9932 285.159 65.8272 285.427C74.7425 285.922 83.8032 287.238 92.0192 282.117C97.3856 279.683 102.295 275.872 108.699 276.523Z" fill="#F5A2A6"/>
<path d="M111.47 323.794C115.723 316.891 122.944 314.223 130.053 313.137C136.527 312.15 140.474 309.185 145.152 305.002C150.013 300.655 154.218 290.88 164.079 297.495C164.681 297.898 167.472 296.485 167.429 296.194C166.177 287.967 171.22 289.391 174.86 292.073C179.366 295.394 182.474 293.975 187.201 292.626C192.126 291.223 197.159 287.757 203.101 289.848C206.332 290.987 208.316 288.993 207.741 285.312C207.322 282.604 208.666 279.809 211.016 280.642C214.549 281.899 210.865 285.301 211.64 287.693C213.134 288.896 213.355 290.423 212.779 292.153C212.393 292.556 212 292.959 211.613 293.362C208.86 293.54 204.424 292.712 203.617 294.055C195.713 307.28 182.173 301.708 171.177 304.266C165.434 305.604 159.74 306.421 154.078 308.731C147.69 311.337 142.039 312.463 143.103 321.421C143.512 324.886 133.747 328.492 129.585 325.242C123.289 320.329 117.643 322.184 111.47 323.794Z" fill="#EFC0C9"/>
<path d="M186.006 327.462C183.113 324.681 179.758 322.283 178.172 318.376C183.463 309.047 193.109 306.928 202.256 304.522C206.794 303.329 211.176 302.523 214.451 298.906C216.962 298.17 217.866 299.062 217.161 301.582C216.822 306.72 213.762 311.718 209.407 311.617C197.314 311.341 191.926 319.455 186.006 327.462Z" fill="#EBCDDA"/>
<path d="M217.19 301.572C216.286 300.68 215.383 299.788 214.474 298.896C213.522 297.052 212.565 295.209 211.613 293.371L212.334 292.554C217.394 289.593 223.013 295.118 228.035 291.512C229.282 291.694 230.294 292.291 231.111 293.242C229.251 296.934 227.39 300.626 225.524 304.318C222.744 303.399 219.97 302.485 217.19 301.572Z" fill="#E4C8D5"/>
<path d="M166.923 320.434C173.983 321.511 177.338 327.003 180.952 332.183C177.779 332.296 175.354 330.432 172.719 329.107C171.004 325.497 168.063 323.878 164.148 323.854C164.272 322.836 164.401 321.814 164.53 320.796C165.202 319.843 165.998 319.72 166.923 320.434Z" fill="#C6B0BF"/>
<path d="M166.912 320.447C166.137 320.72 165.336 320.846 164.519 320.812L164.562 320.904C162.664 319.088 162.578 317.334 164.755 315.663C167.358 315.117 169.966 314.654 172.584 315.577C171.773 318.463 168.374 318.331 166.912 320.447Z" fill="#535167"/>
<path d="M164.775 315.668C164.711 317.413 164.646 319.161 164.582 320.906C161.544 319.047 161.608 317.299 164.775 315.668Z" fill="#C6B0BF"/>
<path d="M130.938 282.143C141.181 279.912 151.059 276.113 161.846 276.242C165.792 276.29 170.379 275.065 173.611 272.862C186.215 264.258 200.163 264.457 214.364 265.381C216.633 265.489 218.687 266.031 219.956 268.154C221.408 269.772 221.714 271.583 220.908 273.587C217.649 276.667 214.046 275.345 210.772 273.947C204.954 271.454 199.582 272.76 195.727 276.881C187.253 285.942 177.353 284.432 167.078 282.105C157.017 284.529 146.962 286.974 136.493 284.899C134.638 284.899 132.782 284.899 130.927 284.894C130.572 284.432 130.223 283.975 129.868 283.513C130.223 283.056 130.583 282.599 130.938 282.143Z" fill="#F4A9AE"/>
<path d="M167.085 282.093C168.225 280.422 169.806 279.702 171.731 280.358C180.501 283.324 187.012 280.637 193.503 274.022C201.358 266.009 202.219 266.654 213.382 272.415C215.285 273.398 217.737 273.318 219.936 273.732C224.91 272.168 229.868 270.48 235.181 272.076C238.735 281.454 229.567 281.239 225.502 284.877C218.538 275.693 209.188 274.119 200.337 280.153C192.535 285.469 183.684 283.867 175.726 286.935C171.693 288.489 168.908 285.624 167.085 282.093Z" fill="#F2B0B7"/>
<path d="M225.521 284.889C223.613 275.554 233.426 277.967 236.663 273.786C246.008 263.952 257.461 262.474 270.017 265.414C266.479 267.993 263.129 272.362 259.354 272.765C252.773 273.464 250.891 278.161 247.761 282.121L247.788 282.1C245.454 285.265 242.018 286.663 238.416 287.533C235.017 288.35 232.533 290.048 231.097 293.24C230.243 293.24 229.388 293.245 228.533 293.262C225.984 292.16 227.102 289.118 225.489 287.522C225.505 286.641 225.511 285.765 225.521 284.889Z" fill="#F0B9C2"/>
<path d="M225.47 287.524C228.712 288.26 228.422 290.867 228.514 293.269C222.852 298.987 217.652 294.032 212.302 292.559C212.07 290.942 211.845 289.324 211.613 287.712C213.915 287.202 216.195 287.067 218.276 288.437C220.959 290.2 223.378 290.265 225.47 287.524Z" fill="#6C6275"/>
<path d="M89.2354 296.009C91.0798 295.961 93.6232 296.681 94.6612 295.74C102.651 288.496 113.244 288.26 122.643 284.869C123.557 284.88 124.477 284.885 125.391 284.885C127.241 283.305 129.096 283.181 130.946 284.88L130.973 284.906C131.919 292.962 126.655 294.714 120.412 294.714C118.052 294.714 115.976 293.946 114.594 296.546C109.797 305.569 103.528 303.699 96.4891 299.325C94.3222 297.971 90.9939 298.648 89.2354 296.009Z" fill="#F4A9AE"/>
<path d="M57.9273 295.094C58.4597 295.685 59.3738 296.239 59.433 296.872C59.5189 297.829 58.5993 298.205 57.5993 297.749C57.2498 297.587 56.9055 297.163 56.7926 296.787C56.4806 295.749 56.9166 295.169 57.9273 295.094Z" fill="#F0BAC2"/>
<path d="M48.124 385.81C49.1025 385.751 49.5653 386.202 49.5008 387.174C48.7049 387.052 48.2422 386.601 48.124 385.81Z" fill="#4C546A"/>
<path d="M236.664 307.119C240.186 302.599 242.009 296.269 249.192 295.656C250.623 295.538 251.23 294.296 251.44 292.765C252.935 281.834 260.318 278.932 270.04 279.314C262.77 293.216 254.086 305.404 236.664 307.119Z" fill="#E8D5E3"/>
<path d="M228.273 309.898C231.048 308.969 233.828 308.046 236.603 307.113C234.543 310.177 232.941 314.617 228.273 309.898Z" fill="#E8D5E3"/>
<path d="M197.802 335.158C196.99 334.192 196.184 333.222 195.372 332.256C197.749 328.123 199.813 323.694 205.739 321.508C205.992 328.466 200.066 330.788 197.802 335.158Z" fill="#595B71"/>
<path d="M270.004 265.405C261.25 264.938 252.964 266.469 245.651 271.564C242.866 273.504 239.817 273.719 236.65 273.778C231.079 273.767 225.514 273.751 219.943 273.74C219.954 271.876 219.96 270.016 219.97 268.151C221.25 268.673 222.997 270.021 223.729 269.597C235.596 262.804 249.071 263.369 261.885 260.977C262.767 260.81 263.584 260.268 264.428 259.902C265.751 262.036 267.875 262.536 270.155 262.734C270.133 263.627 270.079 264.519 270.004 265.405Z" fill="#F4A8AC"/>
<path d="M272.802 259.947C274.528 256.416 275.953 252.81 275.577 248.758C276.555 247.866 277.464 246.926 278.394 245.985C284.099 246.05 289.858 246.431 294.998 243.164C295.359 247.974 291.068 250.478 289.46 254.31C284.551 258.088 279.308 260.882 272.802 259.947Z" fill="#F4A8AC"/>
<path d="M314.513 223.745C316.191 220.214 320.815 220.564 322.666 215.695C324.82 209.998 332.524 211.949 333.16 218.645C333.611 223.407 335.51 223.971 338.882 223.648C344.071 223.154 348.508 225.981 353.433 226.497C348.989 230.887 344.813 231.403 338.017 230.081C329.935 228.506 322.472 225.309 314.513 223.745Z" fill="#F5A5A9"/>
<path d="M297.793 234.828C298.643 225.714 305.45 226.563 311.715 226.514C310.687 227.347 309.785 228.497 308.607 228.954C302.326 231.405 302.003 234.403 307.508 238.192C309.331 239.444 311.96 240.374 312.731 242.11C314.062 245.125 311.101 245.469 308.957 245.931C306.466 240.992 300.879 239.16 297.793 234.828Z" fill="#F4A8AC"/>
<path d="M295.036 243.153C295.036 242.234 295.047 241.309 295.079 240.391C295.413 241.051 295.816 241.691 296.026 242.39C296.069 242.535 295.386 242.895 295.036 243.153Z" fill="#F4A8AC"/>
<path d="M130.928 284.871C129.079 284.871 127.224 284.876 125.374 284.876C126.643 282.748 128.681 282.184 130.971 282.141C130.95 283.049 130.939 283.957 130.928 284.871Z" fill="#F5A2A6"/>
<path d="M247.75 282.095C247.395 281.901 246.706 281.638 246.733 281.525C246.911 280.681 247.303 280.891 247.723 282.116L247.75 282.095Z" fill="#ECCDD9"/>
</svg>
