<svg width="249" height="30" viewBox="0 0 249 30" fill="none" xmlns="http://www.w3.org/2000/svg">
<path d="M0.573374 2.23874C0.0738719 2.00312 -0.140047 1.40719 0.095572 0.90769C0.331191 0.408188 0.927125 0.194269 1.42663 0.429888L0.573374 2.23874ZM249 1.33432L242.371 10.7891L237.498 0.321045L249 1.33432ZM1.42663 0.429888C2.30078 0.842232 3.17732 1.25034 4.05622 1.65417L3.2212 3.47152C2.3362 3.06488 1.45358 2.65395 0.573374 2.23874L1.42663 0.429888ZM9.35234 4.02341C11.1241 4.79471 12.9051 5.54884 14.695 6.28557L13.9338 8.13503C12.1314 7.39319 10.3381 6.63383 8.55404 5.85718L9.35234 4.02341ZM20.0822 8.43972C21.8834 9.13896 23.6932 9.82074 25.5116 10.4848L24.8255 12.3635C22.9945 11.6948 21.1721 11.0082 19.3584 10.3041L20.0822 8.43972ZM30.9813 12.4202C32.8089 13.0462 34.6447 13.6544 36.4885 14.2447L35.8787 16.1495C34.0221 15.5551 32.1735 14.9426 30.3332 14.3123L30.9813 12.4202ZM42.032 15.958C43.8831 16.5097 45.7418 17.0434 47.6082 17.5589L47.0757 19.4868C45.1964 18.9676 43.3247 18.4302 41.4608 17.8747L42.032 15.958ZM53.2165 19.0474C55.0879 19.524 56.9666 19.9823 58.8524 20.4222L58.398 22.3699C56.4991 21.9269 54.6074 21.4654 52.723 20.9856L53.2165 19.0474ZM64.5164 21.6836C66.4052 22.0844 68.3007 22.4667 70.2029 22.8304L69.8272 24.7949C67.9119 24.4286 66.0032 24.0436 64.1014 23.6401L64.5164 21.6836ZM75.9129 23.863C77.816 24.1875 79.7256 24.4934 81.6412 24.7806L81.3447 26.7585C79.4158 26.4693 77.4931 26.1613 75.5767 25.8346L75.9129 23.863ZM87.3876 25.5833C89.3022 25.8312 91.2227 26.0605 93.1488 26.2709L92.9316 28.2591C90.9922 28.0472 89.0586 27.8164 87.1308 27.5667L87.3876 25.5833ZM98.9222 26.8435C100.845 27.0148 102.774 27.1674 104.707 27.3011L104.569 29.2963C102.622 29.1618 100.681 29.0081 98.7447 28.8356L98.9222 26.8435ZM110.498 27.6437C112.426 27.7387 114.359 27.8148 116.297 27.8719L116.238 29.871C114.287 29.8135 112.341 29.7369 110.4 29.6413L110.498 27.6437ZM122.097 27.9858C123.064 27.9953 124.031 28 125 28V30C124.025 30 123.051 29.9952 122.078 29.9857L122.097 27.9858ZM125 28C125.969 28 126.936 27.9953 127.903 27.9858L127.922 29.9857C126.949 29.9952 125.975 30 125 30V28ZM133.703 27.8719C135.641 27.8148 137.574 27.7387 139.502 27.6437L139.6 29.6413C137.659 29.7369 135.713 29.8135 133.762 29.871L133.703 27.8719ZM145.293 27.3011C147.226 27.1674 149.155 27.0148 151.078 26.8435L151.255 28.8356C149.319 29.0081 147.378 29.1618 145.431 29.2963L145.293 27.3011ZM156.851 26.2709C158.777 26.0605 160.698 25.8312 162.612 25.5833L162.869 27.5667C160.941 27.8164 159.008 28.0472 157.068 28.2591L156.851 26.2709ZM168.359 24.7806C170.274 24.4934 172.184 24.1875 174.087 23.863L174.423 25.8346C172.507 26.1613 170.584 26.4693 168.655 26.7585L168.359 24.7806ZM179.797 22.8304C181.699 22.4667 183.595 22.0844 185.484 21.6836L185.899 23.6401C183.997 24.0436 182.088 24.4286 180.173 24.7948L179.797 22.8304ZM191.148 20.4222C193.033 19.9823 194.912 19.524 196.784 19.0474L197.277 20.9856C195.393 21.4654 193.501 21.9269 191.602 22.3699L191.148 20.4222ZM202.392 17.5589C204.258 17.0434 206.117 16.5097 207.968 15.958L208.539 17.8747C206.675 18.4302 204.804 18.9676 202.924 19.4868L202.392 17.5589ZM213.511 14.2447C215.355 13.6544 217.191 13.0462 219.019 12.4202L219.667 14.3123C217.827 14.9426 215.978 15.5551 214.121 16.1495L213.511 14.2447ZM224.488 10.4848C226.307 9.82073 228.117 9.13896 229.918 8.43971L230.642 10.3041C228.828 11.0082 227.006 11.6947 225.175 12.3635L224.488 10.4848ZM235.305 6.28556C237.095 5.54883 238.876 4.7947 240.648 4.0234L241.446 5.85717C239.662 6.63383 237.869 7.39318 236.066 8.13503L235.305 6.28556ZM0.573374 2.23874C0.0738719 2.00312 -0.140047 1.40719 0.095572 0.90769C0.331191 0.408188 0.927125 0.194269 1.42663 0.429888L0.573374 2.23874ZM249 1.33432L242.371 10.7891L237.498 0.321045L249 1.33432ZM1.42663 0.429888C2.30078 0.842232 3.17732 1.25034 4.05622 1.65417L3.2212 3.47152C2.3362 3.06488 1.45358 2.65395 0.573374 2.23874L1.42663 0.429888ZM9.35234 4.02341C11.1241 4.79471 12.9051 5.54884 14.695 6.28557L13.9338 8.13503C12.1314 7.39319 10.3381 6.63383 8.55404 5.85718L9.35234 4.02341ZM20.0822 8.43972C21.8834 9.13896 23.6932 9.82074 25.5116 10.4848L24.8255 12.3635C22.9945 11.6948 21.1721 11.0082 19.3584 10.3041L20.0822 8.43972ZM30.9813 12.4202C32.8089 13.0462 34.6447 13.6544 36.4885 14.2447L35.8787 16.1495C34.0221 15.5551 32.1735 14.9426 30.3332 14.3123L30.9813 12.4202ZM42.032 15.958C43.8831 16.5097 45.7418 17.0434 47.6082 17.5589L47.0757 19.4868C45.1964 18.9676 43.3247 18.4302 41.4608 17.8747L42.032 15.958ZM53.2165 19.0474C55.0879 19.524 56.9666 19.9823 58.8524 20.4222L58.398 22.3699C56.4991 21.9269 54.6074 21.4654 52.723 20.9856L53.2165 19.0474ZM64.5164 21.6836C66.4052 22.0844 68.3007 22.4667 70.2029 22.8304L69.8272 24.7949C67.9119 24.4286 66.0032 24.0436 64.1014 23.6401L64.5164 21.6836ZM75.9129 23.863C77.816 24.1875 79.7256 24.4934 81.6412 24.7806L81.3447 26.7585C79.4158 26.4693 77.4931 26.1613 75.5767 25.8346L75.9129 23.863ZM87.3876 25.5833C89.3022 25.8312 91.2227 26.0605 93.1488 26.2709L92.9316 28.2591C90.9922 28.0472 89.0586 27.8164 87.1308 27.5667L87.3876 25.5833ZM98.9222 26.8435C100.845 27.0148 102.774 27.1674 104.707 27.3011L104.569 29.2963C102.622 29.1618 100.681 29.0081 98.7447 28.8356L98.9222 26.8435ZM110.498 27.6437C112.426 27.7387 114.359 27.8148 116.297 27.8719L116.238 29.871C114.287 29.8135 112.341 29.7369 110.4 29.6413L110.498 27.6437ZM122.097 27.9858C123.064 27.9953 124.031 28 125 28V30C124.025 30 123.051 29.9952 122.078 29.9857L122.097 27.9858ZM125 28C125.969 28 126.936 27.9953 127.903 27.9858L127.922 29.9857C126.949 29.9952 125.975 30 125 30V28ZM133.703 27.8719C135.641 27.8148 137.574 27.7387 139.502 27.6437L139.6 29.6413C137.659 29.7369 135.713 29.8135 133.762 29.871L133.703 27.8719ZM145.293 27.3011C147.226 27.1674 149.155 27.0148 151.078 26.8435L151.255 28.8356C149.319 29.0081 147.378 29.1618 145.431 29.2963L145.293 27.3011ZM156.851 26.2709C158.777 26.0605 160.698 25.8312 162.612 25.5833L162.869 27.5667C160.941 27.8164 159.008 28.0472 157.068 28.2591L156.851 26.2709ZM168.359 24.7806C170.274 24.4934 172.184 24.1875 174.087 23.863L174.423 25.8346C172.507 26.1613 170.584 26.4693 168.655 26.7585L168.359 24.7806ZM179.797 22.8304C181.699 22.4667 183.595 22.0844 185.484 21.6836L185.899 23.6401C183.997 24.0436 182.088 24.4286 180.173 24.7948L179.797 22.8304ZM191.148 20.4222C193.033 19.9823 194.912 19.524 196.784 19.0474L197.277 20.9856C195.393 21.4654 193.501 21.9269 191.602 22.3699L191.148 20.4222ZM202.392 17.5589C204.258 17.0434 206.117 16.5097 207.968 15.958L208.539 17.8747C206.675 18.4302 204.804 18.9676 202.924 19.4868L202.392 17.5589ZM213.511 14.2447C215.355 13.6544 217.191 13.0462 219.019 12.4202L219.667 14.3123C217.827 14.9426 215.978 15.5551 214.121 16.1495L213.511 14.2447ZM224.488 10.4848C226.307 9.82073 228.117 9.13896 229.918 8.43971L230.642 10.3041C228.828 11.0082 227.006 11.6947 225.175 12.3635L224.488 10.4848ZM235.305 6.28556C237.095 5.54883 238.876 4.7947 240.648 4.0234L241.446 5.85717C239.662 6.63383 237.869 7.39318 236.066 8.13503L235.305 6.28556Z" fill="#AFAFAF"/>
</svg>
